<?xml version="1.0" encoding="utf-8"?>
<!-- Generator: Adobe Illustrator 18.1.1, SVG Export Plug-In . SVG Version: 6.00 Build 0)  -->
<svg version="1.1" id="Layer_1" xmlns="http://www.w3.org/2000/svg" xmlns:xlink="http://www.w3.org/1999/xlink" x="0px" y="0px"
	 viewBox="288 288 24 24" enable-background="new 288 288 24 24" xml:space="preserve">
<path d="M311.6,309.7l-4.4-4.4c1.5-1.9,2.3-4.3,2.3-6.6c0-5.9-4.8-10.8-10.8-10.8c-6,0-10.8,4.8-10.8,10.8c0,5.9,4.8,10.8,10.8,10.8
	c2.4,0,4.8-0.8,6.6-2.3l4.4,4.4c0.3,0.3,0.6,0.4,0.9,0.4s0.6-0.1,0.9-0.4C312.1,311,312.1,310.2,311.6,309.7z M307,298.8
	c0,4.5-3.7,8.2-8.2,8.2s-8.2-3.7-8.2-8.2s3.7-8.2,8.2-8.2C303.4,290.6,307,294.3,307,298.8z"/>
</svg>
