<?xml version="1.0" encoding="utf-8"?>
<!-- Generator: Adobe Illustrator 18.1.1, SVG Export Plug-In . SVG Version: 6.00 Build 0)  -->
<svg version="1.1" id="Layer_1" xmlns="http://www.w3.org/2000/svg" xmlns:xlink="http://www.w3.org/1999/xlink" x="0px" y="0px"
	 viewBox="288.4 227.6 24 24" enable-background="new 288.4 227.6 24 24" xml:space="preserve">
<path fill="#76818C" d="M312,249.4l-4.4-4.4c1.5-1.9,2.3-4.3,2.3-6.6c0-5.9-4.8-10.8-10.8-10.8s-10.8,4.8-10.8,10.8
	c0,5.9,4.8,10.8,10.8,10.8c2.4,0,4.8-0.8,6.6-2.3l4.4,4.4c0.3,0.3,0.6,0.4,0.9,0.4s0.6-0.1,0.9-0.4
	C312.5,250.7,312.5,249.9,312,249.4z M307.4,238.4c0,4.5-3.7,8.2-8.2,8.2c-4.5,0-8.2-3.7-8.2-8.2c0-4.5,3.7-8.2,8.2-8.2
	C303.7,230.2,307.4,233.9,307.4,238.4z"/>
</svg>
