<?xml version="1.0" encoding="utf-8"?>
<!-- Generator: Adobe Illustrator 18.1.1, SVG Export Plug-In . SVG Version: 6.00 Build 0)  -->
<svg version="1.1" id="Layer_1" xmlns="http://www.w3.org/2000/svg" xmlns:xlink="http://www.w3.org/1999/xlink" x="0px" y="0px"
	 viewBox="268 208 64 64" enable-background="new 268 208 64 64" xml:space="preserve">
<path fill="#FFFFFF" d="M324.4,224.9c0,0-0.2-0.7-0.2-0.9c0-0.1-0.1-0.2-0.1-0.2c-0.1-0.1-0.2-0.5-0.2-0.7c0-0.1,0-0.1-0.1-0.2
	c-0.5-1.6-1.3-3-1.9-4c-5.5-9-16.6-11.8-24.7-10.6c-7.3,1.1-12.9,4.8-15.9,10.6c-0.8,1.6-1.3,2.8-1.5,4l-0.2,0.8
	c0,0.1-0.1,0.2-0.1,0.3l-0.2,0.9c-0.3,1.6-0.3,3.4-0.1,5.4v0.5c0,0.4-0.1,1-0.3,1.4l-3.9,8.4c-0.5,1-0.4,2.2,0.2,3.3
	c0.7,1,1.7,1.6,2.9,1.6h1.7l-0.8,3.8c-0.2,0.9-0.1,1.9,0.2,2.8l0.2,0.4c0.5,1.4,0.6,2.8,0.3,4.2c-0.2,1,0.1,2,0.6,2.7
	c0.5,0.8,1.4,1.3,2.4,1.5l5.7,0.9v9.1c0,0.4,0.2,0.7,0.4,0.9c0.2,0.1,0.4,0.2,0.7,0.2c0.1,0,0.3,0,0.4-0.1l25.6-9.2
	c0.3-0.1,0.5-0.3,0.7-0.6c0.1-0.3,0.1-0.6,0-0.9c-1.7-4.2-2-7.7-0.7-10.6c0.7-1.6,1.8-2.6,2.4-3.3l0.2-0.2
	C324.5,240.7,326.7,233.2,324.4,224.9z M308.8,236.1c-0.4,0-0.8-0.2-1-0.5l-1.2-2.2l-3,8.4c-0.2,0.4-0.6,0.7-1,0.7h-0.1
	c-0.5-0.1-0.9-0.4-1-0.9l-4.3-19.3l-3.2,13c-0.1,0.5-0.5,0.8-1,0.8h-6.6c-0.6,0-1.1-0.5-1.1-1.1s0.5-1.1,1.1-1.1h5.7l4.2-16.6
	c0.1-0.5,0.6-0.8,1.1-0.8s0.9,0.4,1,0.9l4.5,20.1l2.6-7.2c0.2-0.4,0.5-0.7,0.9-0.7c0.4-0.1,0.8,0.2,1,0.5l2.1,3.7h7.9
	c0.6,0,1.1,0.5,1.1,1.1s-0.5,1.1-1.1,1.1H308.8L308.8,236.1z"/>
</svg>
